<svg xmlns="http://www.w3.org/2000/svg" viewBox="0 0 75 67.69">
    <title>Restaurants</title>
    <g id="Layer_2" data-name="Layer 2" fill="#a8d8d8">
        <path d="M1,52.13h38.9c0-6.18-8.71-11.67-19.45-11.67S1,45.95,1,52.13Z"/><path d="M1.95,59.91h37A2,2,0,0,0,40.84,58V56a2,2,0,0,0-1.95-1.95h-37A2,2,0,0,0,0,56V58A1.94,1.94,0,0,0,1.95,59.91Z"/>
        <path d="M39.87,61.85H1C1,64,2.71,67.69,4.86,67.69H36C38.13,67.69,39.87,64,39.87,61.85Z"/><polygon points="73.07 32.09 44.22 32.09 49.02 67.69 68.27 67.69 73.07 32.09"/>
        <polygon points="53.58 25.36 48.32 6.05 35.2 0 33.99 2.62 45.89 8.11 50.59 25.36 42.29 25.36 42.29 30.17 75 30.17 75 25.36 53.58 25.36"/>
    </g>
</svg>