<svg xmlns="http://www.w3.org/2000/svg" xmlns:xlink="http://www.w3.org/1999/xlink" viewBox="0 0 66.66 66.66">
    <title>Search</title>
    <g id="search-icon" data-name="search-icon">
        <path d="M66.66,61.54a5.19,5.19,0,0,1-5.12,5.12,4.78,4.78,0,0,1-3.61-1.52L44.19,51.44a27.42,27.42,0,0,1-16,5,27.68,27.68,0,0,1-11-2.23,27.59,27.59,0,0,1-15-15,28.11,28.11,0,0,1,0-21.91,27.58,27.58,0,0,1,15-15,28.11,28.11,0,0,1,21.91,0,27.59,27.59,0,0,1,15,15,27.68,27.68,0,0,1,2.23,11,27.42,27.42,0,0,1-5,16L65.18,57.93a4.91,4.91,0,0,1,1.48,3.61M46.15,28.2a17.29,17.29,0,0,0-5.27-12.68A17.29,17.29,0,0,0,28.2,10.25a17.29,17.29,0,0,0-12.68,5.27A17.29,17.29,0,0,0,10.25,28.2a17.29,17.29,0,0,0,5.27,12.68A17.29,17.29,0,0,0,28.2,46.15a17.29,17.29,0,0,0,12.68-5.27A17.29,17.29,0,0,0,46.15,28.2" transform="translate(0 0)" fill-rule="evenodd" fill="#a8d8d8"/>
    </g>
</svg>