<svg id="Layer_1" data-name="Layer 1" xmlns="http://www.w3.org/2000/svg" viewBox="0 0 184.66 168.54"><title>sign</title><path d="M397,280.79A29.13,29.13,0,0,1,368,310.13l-99-13.23a29.13,29.13,0,0,1-28.92-29.34l-7.33-44.63c0-16.21,12.61-24.23,28.92-29.34L368,163c16.44-3,28.92,13.14,28.92,29.34Z" transform="translate(-227.03 -155.45)"/><path d="M370.82,315.51h-.2l-104-14.06c-17.53-.06-31.79-14.67-31.85-32.64L227,221.15c0-20.35,18-28.41,31.49-32.7l112-32.6a24.56,24.56,0,0,1,4.38-.4c16.66,0,27.85,17.14,27.85,33.14v94.14C402.77,300.81,388.44,315.51,370.82,315.51ZM230.09,221l7.71,47.63c0,16.38,13,29.7,28.89,29.7h.21l104,14.06c15.88-.06,28.79-13.36,28.79-29.7V188.6c0-18-12.82-30.08-24.79-30.08a21.37,21.37,0,0,0-3.75.34L259.41,191.39C239.2,197.8,230.14,206.95,230.09,221Z" transform="translate(-227.03 -155.45)" fill="#231f20"/><path d="M269.43,181.59c-14,1.63-33,6-36.59,25.41l0,1.34c.86-2,1.78-3.91,2.72-5.84a4.39,4.39,0,0,1,2-2.1c4.6-9.21,14.86-14.36,32.13-16.37l16.75-1.56a19,19,0,0,1,7.58-3.16Z" transform="translate(-227.03 -155.45)"/><path d="M387.24,309a29.2,29.2,0,0,1-24,12.55,29.62,29.62,0,0,1-5.29-.48l-50.26-16.33c-.12,0-.23,0-.36,0-3.62-.28-7.23-.7-10.84-1.08l60.78,19.75.15,0a32,32,0,0,0,5.81.54,31.66,31.66,0,0,0,28.24-17.41A19.8,19.8,0,0,1,387.24,309Z" transform="translate(-227.03 -155.45)"/><path d="M399.62,177.08a9.85,9.85,0,0,1,1.73,4.91,29.23,29.23,0,0,1,7.4,25.29l-8.12,43.8v13.41l10.52-56.76A31.73,31.73,0,0,0,399.62,177.08Z" transform="translate(-227.03 -155.45)"/></svg>